<svg width="306" height="270" viewBox="0 0 306 270" fill="none" xmlns="http://www.w3.org/2000/svg">
<rect x="18.5" y="2.5" width="285" height="253" rx="17.5" fill="#9D9D9D" stroke="black" stroke-width="5"/>
<rect x="2.5" y="14.5" width="285" height="253" rx="17.5" fill="white" stroke="black" stroke-width="5"/>
<path d="M113.176 194.909H119.256V215.193C119.256 217.068 118.834 218.697 117.991 220.08C117.158 221.462 115.998 222.527 114.511 223.276C113.025 224.024 111.296 224.398 109.327 224.398C107.575 224.398 105.984 224.09 104.554 223.474C103.134 222.849 102.007 221.902 101.173 220.634C100.34 219.355 99.928 217.75 99.9375 215.818H106.06C106.079 216.585 106.235 217.243 106.528 217.793C106.831 218.332 107.243 218.749 107.764 219.043C108.295 219.327 108.92 219.469 109.639 219.469C110.397 219.469 111.036 219.308 111.557 218.986C112.087 218.654 112.49 218.171 112.764 217.537C113.039 216.902 113.176 216.121 113.176 215.193V194.909ZM130.449 224.412C129.057 224.412 127.816 224.17 126.727 223.688C125.638 223.195 124.777 222.471 124.142 221.514C123.517 220.548 123.205 219.346 123.205 217.906C123.205 216.694 123.427 215.676 123.872 214.852C124.317 214.028 124.923 213.366 125.69 212.864C126.457 212.362 127.329 211.983 128.304 211.727C129.289 211.472 130.321 211.292 131.401 211.188C132.67 211.055 133.692 210.932 134.469 210.818C135.245 210.695 135.809 210.515 136.159 210.278C136.509 210.042 136.685 209.691 136.685 209.227V209.142C136.685 208.242 136.401 207.546 135.832 207.054C135.274 206.562 134.478 206.315 133.446 206.315C132.357 206.315 131.491 206.557 130.847 207.04C130.203 207.513 129.777 208.11 129.568 208.83L123.972 208.375C124.256 207.049 124.814 205.903 125.648 204.938C126.481 203.962 127.556 203.214 128.872 202.693C130.198 202.163 131.732 201.898 133.474 201.898C134.687 201.898 135.847 202.04 136.955 202.324C138.072 202.608 139.062 203.048 139.923 203.645C140.795 204.241 141.481 205.009 141.983 205.946C142.485 206.874 142.736 207.987 142.736 209.284V224H136.997V220.974H136.827C136.476 221.656 136.008 222.258 135.42 222.778C134.833 223.29 134.128 223.692 133.304 223.986C132.48 224.27 131.528 224.412 130.449 224.412ZM132.182 220.236C133.072 220.236 133.858 220.061 134.54 219.71C135.222 219.35 135.757 218.867 136.145 218.261C136.533 217.655 136.727 216.969 136.727 216.202V213.886C136.538 214.009 136.277 214.123 135.946 214.227C135.624 214.322 135.259 214.412 134.852 214.497C134.445 214.573 134.038 214.644 133.631 214.71C133.223 214.767 132.854 214.819 132.523 214.866C131.813 214.971 131.192 215.136 130.662 215.364C130.132 215.591 129.72 215.899 129.426 216.287C129.133 216.666 128.986 217.139 128.986 217.707C128.986 218.531 129.284 219.161 129.881 219.597C130.487 220.023 131.254 220.236 132.182 220.236ZM165.584 208.403L160.044 208.744C159.949 208.271 159.746 207.845 159.433 207.466C159.121 207.078 158.709 206.77 158.197 206.543C157.696 206.306 157.094 206.188 156.393 206.188C155.456 206.188 154.665 206.386 154.021 206.784C153.377 207.172 153.055 207.693 153.055 208.347C153.055 208.867 153.264 209.308 153.68 209.668C154.097 210.027 154.812 210.316 155.825 210.534L159.774 211.33C161.895 211.765 163.477 212.466 164.518 213.432C165.56 214.398 166.081 215.667 166.081 217.239C166.081 218.669 165.66 219.923 164.817 221.003C163.983 222.082 162.838 222.925 161.379 223.531C159.93 224.128 158.259 224.426 156.365 224.426C153.477 224.426 151.176 223.825 149.462 222.622C147.757 221.41 146.758 219.762 146.464 217.679L152.416 217.366C152.596 218.247 153.032 218.92 153.723 219.384C154.414 219.838 155.3 220.065 156.379 220.065C157.44 220.065 158.292 219.862 158.936 219.455C159.589 219.038 159.921 218.503 159.93 217.849C159.921 217.3 159.689 216.85 159.234 216.5C158.78 216.14 158.079 215.866 157.132 215.676L153.354 214.923C151.223 214.497 149.637 213.759 148.595 212.707C147.563 211.656 147.047 210.316 147.047 208.688C147.047 207.286 147.426 206.079 148.183 205.065C148.95 204.052 150.025 203.271 151.408 202.722C152.8 202.172 154.429 201.898 156.294 201.898C159.05 201.898 161.218 202.48 162.8 203.645C164.391 204.81 165.319 206.396 165.584 208.403ZM176.113 224.412C174.721 224.412 173.48 224.17 172.391 223.688C171.302 223.195 170.441 222.471 169.806 221.514C169.181 220.548 168.869 219.346 168.869 217.906C168.869 216.694 169.091 215.676 169.536 214.852C169.981 214.028 170.587 213.366 171.354 212.864C172.121 212.362 172.993 211.983 173.968 211.727C174.953 211.472 175.985 211.292 177.065 211.188C178.334 211.055 179.356 210.932 180.133 210.818C180.909 210.695 181.473 210.515 181.823 210.278C182.174 210.042 182.349 209.691 182.349 209.227V209.142C182.349 208.242 182.065 207.546 181.496 207.054C180.938 206.562 180.142 206.315 179.11 206.315C178.021 206.315 177.155 206.557 176.511 207.04C175.867 207.513 175.441 208.11 175.232 208.83L169.636 208.375C169.92 207.049 170.478 205.903 171.312 204.938C172.145 203.962 173.22 203.214 174.536 202.693C175.862 202.163 177.396 201.898 179.138 201.898C180.351 201.898 181.511 202.04 182.619 202.324C183.736 202.608 184.726 203.048 185.587 203.645C186.459 204.241 187.145 205.009 187.647 205.946C188.149 206.874 188.4 207.987 188.4 209.284V224H182.661V220.974H182.491C182.14 221.656 181.672 222.258 181.085 222.778C180.497 223.29 179.792 223.692 178.968 223.986C178.144 224.27 177.192 224.412 176.113 224.412ZM177.846 220.236C178.736 220.236 179.522 220.061 180.204 219.71C180.886 219.35 181.421 218.867 181.809 218.261C182.197 217.655 182.391 216.969 182.391 216.202V213.886C182.202 214.009 181.942 214.123 181.61 214.227C181.288 214.322 180.924 214.412 180.516 214.497C180.109 214.573 179.702 214.644 179.295 214.71C178.888 214.767 178.518 214.819 178.187 214.866C177.477 214.971 176.856 215.136 176.326 215.364C175.796 215.591 175.384 215.899 175.09 216.287C174.797 216.666 174.65 217.139 174.65 217.707C174.65 218.531 174.948 219.161 175.545 219.597C176.151 220.023 176.918 220.236 177.846 220.236Z" fill="black"/>
<g clip-path="url(#clip0_2_109)">
<path d="M164.883 92.5333L159.183 101.717L163.617 106.15L172.8 100.45L175.967 101.717L178.5 112.167H184.833L187.367 101.717L190.533 100.45L199.717 106.15L204.15 101.717L198.45 92.5333C199.006 91.5365 199.432 90.4722 199.717 89.3667L210.167 86.8333V80.5L199.717 77.9667C199.432 76.8611 199.006 75.7968 198.45 74.8L204.15 65.6167L199.717 61.1833L190.533 66.8833L187.367 65.6167L184.833 55.1667H178.5L175.967 65.6167L172.8 66.8833L163.617 61.1833L159.183 65.6167L164.883 74.8C164.327 75.7968 163.901 76.8611 163.617 77.9667L153.167 80.5V86.8333L163.617 89.3667C163.901 90.4722 164.327 91.5365 164.883 92.5333ZM181.667 77.3333C182.919 77.3333 184.144 77.7048 185.185 78.4007C186.227 79.0966 187.039 80.0857 187.518 81.243C187.997 82.4003 188.123 83.6737 187.878 84.9022C187.634 86.1308 187.031 87.2593 186.145 88.145C185.259 89.0307 184.131 89.6339 182.902 89.8783C181.674 90.1227 180.4 89.9972 179.243 89.5179C178.086 89.0385 177.097 88.2268 176.401 87.1853C175.705 86.1438 175.333 84.9193 175.333 83.6667C175.333 81.987 176.001 80.376 177.188 79.1883C178.376 78.0006 179.987 77.3333 181.667 77.3333Z" fill="black"/>
<path d="M207.633 123.883C205.874 122.465 203.842 121.423 201.662 120.824C199.483 120.225 197.204 120.08 194.967 120.4L163.617 126.1C163.633 124.147 163.248 122.212 162.485 120.414C161.723 118.617 160.599 116.995 159.183 115.65L136.7 93.1667H89.8333C88.1536 93.1667 86.5427 93.8339 85.355 95.0216C84.1673 96.2094 83.5 97.8203 83.5 99.5C83.5 101.18 84.1673 102.791 85.355 103.978C86.5427 105.166 88.1536 105.833 89.8333 105.833H131.633L150.317 124.517C150.566 124.766 150.764 125.062 150.899 125.388C151.034 125.714 151.104 126.064 151.104 126.417C151.104 126.77 151.034 127.119 150.899 127.445C150.764 127.771 150.566 128.067 150.317 128.317C150.067 128.566 149.771 128.764 149.445 128.899C149.119 129.034 148.77 129.104 148.417 129.104C148.064 129.104 147.714 129.034 147.388 128.899C147.062 128.764 146.766 128.566 146.517 128.317L135.433 117.233C134.214 116.319 132.705 115.875 131.184 115.983C129.664 116.091 128.233 116.744 127.155 117.822C126.077 118.9 125.424 120.33 125.316 121.851C125.208 123.372 125.652 124.88 126.567 126.1L137.65 137.183C139.031 138.639 140.704 139.786 142.56 140.55C144.415 141.314 146.411 141.677 148.417 141.617C150.355 141.608 152.28 141.287 154.117 140.667L197.183 133.067C197.626 132.986 198.081 133.001 198.518 133.11C198.955 133.219 199.364 133.42 199.717 133.7C200.027 133.978 200.274 134.32 200.438 134.703C200.602 135.086 200.68 135.5 200.667 135.917C200.682 136.657 200.436 137.38 199.973 137.959C199.51 138.537 198.859 138.935 198.133 139.083L139.233 149.85L104.717 121.667H89.8333C88.1536 121.667 86.5427 122.334 85.355 123.522C84.1673 124.709 83.5 126.32 83.5 128C83.5 129.68 84.1673 131.291 85.355 132.478C86.5427 133.666 88.1536 134.333 89.8333 134.333H100.283L135.433 163.15L200.35 151.433C203.269 150.863 205.968 149.483 208.138 147.451C210.309 145.418 211.863 142.815 212.623 139.94C213.383 137.065 213.318 134.034 212.436 131.195C211.553 128.355 209.889 125.821 207.633 123.883Z" fill="black"/>
</g>
<defs>
<clipPath id="clip0_2_109">
<rect width="152" height="152" fill="white" transform="translate(74 33)"/>
</clipPath>
</defs>
</svg>
