<svg width="307" height="272" viewBox="0 0 307 272" fill="none" xmlns="http://www.w3.org/2000/svg">
<rect x="19.5" y="2.5" width="285" height="253" rx="17.5" fill="#9D9D9D" stroke="black" stroke-width="5"/>
<rect x="2.5" y="16.5" width="285" height="253" rx="17.5" fill="white" stroke="black" stroke-width="5"/>
<path d="M55.5284 233V203.909H61.679V216.736H62.0625L72.5312 203.909H79.9034L69.108 216.935L80.0312 233H72.6733L64.7045 221.04L61.679 224.733V233H55.5284ZM91.3345 233.426C89.0902 233.426 87.1584 232.972 85.5391 232.062C83.9292 231.144 82.6887 229.847 81.8175 228.17C80.9463 226.485 80.5107 224.491 80.5107 222.19C80.5107 219.946 80.9463 217.976 81.8175 216.281C82.6887 214.586 83.915 213.265 85.4964 212.318C87.0874 211.371 88.9529 210.898 91.093 210.898C92.5324 210.898 93.8724 211.13 95.1129 211.594C96.3629 212.048 97.4519 212.735 98.38 213.653C99.3175 214.572 100.047 215.727 100.567 217.119C101.088 218.502 101.349 220.121 101.349 221.977V223.639H82.9254V219.889H95.6527C95.6527 219.018 95.4633 218.246 95.0845 217.574C94.7057 216.902 94.1802 216.376 93.5078 215.997C92.8449 215.609 92.0732 215.415 91.1925 215.415C90.2739 215.415 89.4595 215.628 88.7493 216.054C88.0485 216.471 87.4993 217.034 87.1016 217.744C86.7038 218.445 86.5002 219.226 86.4908 220.088V223.653C86.4908 224.733 86.6896 225.666 87.0874 226.452C87.4946 227.238 88.0675 227.844 88.8061 228.27C89.5447 228.696 90.4207 228.909 91.4339 228.909C92.1063 228.909 92.7218 228.814 93.2805 228.625C93.8393 228.436 94.3175 228.152 94.7152 227.773C95.1129 227.394 95.416 226.93 95.6243 226.381L101.221 226.75C100.937 228.095 100.354 229.269 99.4737 230.273C98.6025 231.267 97.4756 232.044 96.093 232.602C94.7199 233.152 93.1338 233.426 91.3345 233.426ZM105.298 233V211.182H111.164V214.989H111.391C111.789 213.634 112.457 212.612 113.394 211.92C114.332 211.22 115.411 210.869 116.633 210.869C116.936 210.869 117.263 210.888 117.613 210.926C117.963 210.964 118.271 211.016 118.536 211.082V216.452C118.252 216.366 117.859 216.291 117.357 216.224C116.855 216.158 116.396 216.125 115.979 216.125C115.089 216.125 114.294 216.319 113.593 216.707C112.902 217.086 112.353 217.616 111.945 218.298C111.548 218.98 111.349 219.766 111.349 220.656V233H105.298ZM127.261 233.412C125.869 233.412 124.629 233.17 123.54 232.688C122.451 232.195 121.589 231.471 120.955 230.514C120.33 229.548 120.017 228.346 120.017 226.906C120.017 225.694 120.24 224.676 120.685 223.852C121.13 223.028 121.736 222.366 122.503 221.864C123.27 221.362 124.141 220.983 125.116 220.727C126.101 220.472 127.134 220.292 128.213 220.188C129.482 220.055 130.505 219.932 131.281 219.818C132.058 219.695 132.621 219.515 132.972 219.278C133.322 219.042 133.497 218.691 133.497 218.227V218.142C133.497 217.242 133.213 216.546 132.645 216.054C132.086 215.562 131.291 215.315 130.259 215.315C129.17 215.315 128.303 215.557 127.659 216.04C127.015 216.513 126.589 217.11 126.381 217.83L120.784 217.375C121.068 216.049 121.627 214.903 122.46 213.938C123.294 212.962 124.368 212.214 125.685 211.693C127.01 211.163 128.545 210.898 130.287 210.898C131.499 210.898 132.659 211.04 133.767 211.324C134.884 211.608 135.874 212.048 136.736 212.645C137.607 213.241 138.294 214.009 138.795 214.946C139.297 215.874 139.548 216.987 139.548 218.284V233H133.81V229.974H133.639C133.289 230.656 132.82 231.258 132.233 231.778C131.646 232.29 130.94 232.692 130.116 232.986C129.293 233.27 128.341 233.412 127.261 233.412ZM128.994 229.236C129.884 229.236 130.67 229.061 131.352 228.71C132.034 228.35 132.569 227.867 132.957 227.261C133.346 226.655 133.54 225.969 133.54 225.202V222.886C133.35 223.009 133.09 223.123 132.759 223.227C132.437 223.322 132.072 223.412 131.665 223.497C131.258 223.573 130.85 223.644 130.443 223.71C130.036 223.767 129.667 223.819 129.335 223.866C128.625 223.971 128.005 224.136 127.474 224.364C126.944 224.591 126.532 224.899 126.239 225.287C125.945 225.666 125.798 226.139 125.798 226.707C125.798 227.531 126.097 228.161 126.693 228.597C127.299 229.023 128.066 229.236 128.994 229.236ZM144.243 211.182H150.294V234.08C150.294 235.765 149.963 237.129 149.3 238.17C148.637 239.212 147.685 239.974 146.445 240.457C145.214 240.94 143.741 241.182 142.027 241.182C141.819 241.182 141.62 241.177 141.43 241.168C141.232 241.168 141.023 241.163 140.805 241.153V236.423C140.966 236.433 141.108 236.438 141.232 236.438C141.345 236.447 141.468 236.452 141.601 236.452C142.576 236.452 143.258 236.243 143.646 235.827C144.044 235.42 144.243 234.804 144.243 233.98V211.182ZM147.254 208.369C146.364 208.369 145.597 208.071 144.953 207.474C144.309 206.868 143.987 206.144 143.987 205.301C143.987 204.468 144.309 203.753 144.953 203.156C145.597 202.55 146.364 202.247 147.254 202.247C148.163 202.247 148.935 202.55 149.57 203.156C150.214 203.753 150.536 204.468 150.536 205.301C150.536 206.144 150.214 206.868 149.57 207.474C148.935 208.071 148.163 208.369 147.254 208.369ZM155.141 233V211.182H161.192V233H155.141ZM158.181 208.369C157.281 208.369 156.51 208.071 155.866 207.474C155.231 206.868 154.914 206.144 154.914 205.301C154.914 204.468 155.231 203.753 155.866 203.156C156.51 202.55 157.281 202.247 158.181 202.247C159.081 202.247 159.848 202.55 160.482 203.156C161.126 203.753 161.448 204.468 161.448 205.301C161.448 206.144 161.126 206.868 160.482 207.474C159.848 208.071 159.081 208.369 158.181 208.369ZM172.091 220.386V233H166.04V211.182H171.807V215.031H172.062C172.545 213.762 173.355 212.759 174.491 212.02C175.628 211.272 177.006 210.898 178.625 210.898C180.14 210.898 181.461 211.229 182.588 211.892C183.715 212.555 184.591 213.502 185.216 214.733C185.841 215.955 186.153 217.413 186.153 219.108V233H180.102V220.188C180.112 218.852 179.771 217.811 179.08 217.062C178.388 216.305 177.437 215.926 176.224 215.926C175.41 215.926 174.69 216.101 174.065 216.452C173.45 216.802 172.967 217.313 172.616 217.986C172.276 218.649 172.1 219.449 172.091 220.386ZM197.144 233.412C195.752 233.412 194.512 233.17 193.423 232.688C192.334 232.195 191.472 231.471 190.837 230.514C190.212 229.548 189.9 228.346 189.9 226.906C189.9 225.694 190.122 224.676 190.567 223.852C191.013 223.028 191.619 222.366 192.386 221.864C193.153 221.362 194.024 220.983 194.999 220.727C195.984 220.472 197.016 220.292 198.096 220.188C199.365 220.055 200.388 219.932 201.164 219.818C201.941 219.695 202.504 219.515 202.854 219.278C203.205 219.042 203.38 218.691 203.38 218.227V218.142C203.38 217.242 203.096 216.546 202.528 216.054C201.969 215.562 201.174 215.315 200.141 215.315C199.052 215.315 198.186 215.557 197.542 216.04C196.898 216.513 196.472 217.11 196.263 217.83L190.667 217.375C190.951 216.049 191.51 214.903 192.343 213.938C193.176 212.962 194.251 212.214 195.567 211.693C196.893 211.163 198.427 210.898 200.17 210.898C201.382 210.898 202.542 211.04 203.65 211.324C204.767 211.608 205.757 212.048 206.619 212.645C207.49 213.241 208.176 214.009 208.678 214.946C209.18 215.874 209.431 216.987 209.431 218.284V233H203.692V229.974H203.522C203.172 230.656 202.703 231.258 202.116 231.778C201.529 232.29 200.823 232.692 199.999 232.986C199.175 233.27 198.224 233.412 197.144 233.412ZM198.877 229.236C199.767 229.236 200.553 229.061 201.235 228.71C201.917 228.35 202.452 227.867 202.84 227.261C203.228 226.655 203.423 225.969 203.423 225.202V222.886C203.233 223.009 202.973 223.123 202.641 223.227C202.319 223.322 201.955 223.412 201.548 223.497C201.14 223.573 200.733 223.644 200.326 223.71C199.919 223.767 199.549 223.819 199.218 223.866C198.508 223.971 197.888 224.136 197.357 224.364C196.827 224.591 196.415 224.899 196.121 225.287C195.828 225.666 195.681 226.139 195.681 226.707C195.681 227.531 195.979 228.161 196.576 228.597C197.182 229.023 197.949 229.236 198.877 229.236ZM220.177 220.386V233H214.126V211.182H219.893V215.031H220.148C220.631 213.762 221.441 212.759 222.577 212.02C223.714 211.272 225.092 210.898 226.711 210.898C228.226 210.898 229.547 211.229 230.674 211.892C231.801 212.555 232.677 213.502 233.302 214.733C233.927 215.955 234.239 217.413 234.239 219.108V233H228.188V220.188C228.198 218.852 227.857 217.811 227.165 217.062C226.474 216.305 225.522 215.926 224.31 215.926C223.496 215.926 222.776 216.101 222.151 216.452C221.536 216.802 221.053 217.313 220.702 217.986C220.362 218.649 220.186 219.449 220.177 220.386Z" fill="black"/>
<path d="M143.505 112.917C134.628 120.725 130.234 126.603 119.309 140.794C119.309 140.794 89.7109 152.669 75.2234 169.561H143.356L160.634 145.752V169.531H173.875V112.888L143.505 112.917C143.534 112.888 143.505 112.888 143.505 112.917ZM139.437 143.258H130.502C129.344 143.258 128.423 142.338 128.423 141.18C128.423 140.022 129.344 139.102 130.502 139.102H139.437C140.595 139.102 141.516 140.022 141.516 141.18C141.516 142.338 140.595 143.258 139.437 143.258ZM147.987 133.402H139.052C137.894 133.402 136.973 132.481 136.973 131.323C136.973 130.166 137.894 129.245 139.052 129.245H147.987C149.145 129.245 150.066 130.166 150.066 131.323C150.066 132.481 149.116 133.402 147.987 133.402ZM147.572 119.389H156.508C157.666 119.389 158.586 120.309 158.586 121.467C158.586 122.625 157.666 123.545 156.508 123.545H147.572C146.414 123.545 145.494 122.625 145.494 121.467C145.494 120.309 146.414 119.389 147.572 119.389Z" fill="#2B79C2"/>
<path d="M198.397 120.517C197.061 120.517 195.962 121.616 195.962 122.952V127.078C195.962 128.414 197.061 129.513 198.397 129.513C199.733 129.513 200.831 128.414 200.831 127.078V122.952C200.831 121.616 199.733 120.517 198.397 120.517Z" fill="#3B4652"/>
<path d="M185.067 104.813C185.512 104.367 185.78 103.744 185.78 103.091V98.9641C185.78 97.6281 184.681 96.5297 183.345 96.5297C182.009 96.5297 180.911 97.6281 180.911 98.9641V103.091C180.911 104.427 182.009 105.525 183.345 105.525C183.998 105.525 184.622 105.258 185.067 104.813Z" fill="#3B4652"/>
<path d="M208.431 75.3328L194.953 67.2281L191.391 65.0906C191.42 65.0312 191.48 64.9719 191.509 64.8828C192.489 62.8047 192.964 60.5781 192.964 58.2625C192.964 49.5641 185.869 42.4688 177.17 42.4688C168.472 42.4688 161.377 49.5641 161.377 58.2625C161.377 60.5781 161.852 62.8047 162.831 64.8828C162.861 64.9422 162.891 65.0312 162.92 65.0906C164.316 68 166.602 70.4641 169.422 72.0375C169.689 72.1859 169.956 72.3344 170.223 72.4531C172.361 73.4922 174.736 74.0562 177.141 74.0562C179.545 74.0562 181.92 73.5219 184.058 72.4531C183.909 74.7391 182.633 76.7281 180.792 77.8563C179.605 78.0938 178.358 78.1828 177.141 78.1828C175.894 78.1828 174.677 78.0641 173.489 77.8563C171.352 77.4703 169.303 76.6984 167.373 75.6594C163.93 73.7297 161.08 70.7313 159.328 67.2281L145.88 75.3328C144.425 76.2234 143.505 77.7969 143.505 79.5187V108.731H178.031V149.819H201.87C206.769 149.819 210.777 145.841 210.777 140.912V79.5187C210.777 77.7969 209.886 76.2234 208.431 75.3328ZM170.342 61.3797C170.995 62.8047 172.123 64.0219 173.489 64.7937C173.934 65.0609 174.409 65.2688 174.914 65.4172C175.627 65.6547 176.369 65.7437 177.141 65.7437C177.912 65.7437 178.655 65.625 179.367 65.4172C180.911 65.9219 182.187 66.9906 183.019 68.3266C182.959 68.3563 182.87 68.3859 182.811 68.4156C181.089 69.3953 179.13 69.9 177.111 69.9C175.122 69.9 173.133 69.3953 171.411 68.4156C171.352 68.3859 171.292 68.3563 171.233 68.2969C169.184 67.1094 167.552 65.2687 166.542 63.1313C166.512 63.0719 166.483 62.9828 166.453 62.9234C165.8 61.4391 165.473 59.8656 165.473 58.2328C165.473 51.8203 170.698 46.5953 177.111 46.5953C183.523 46.5953 188.748 51.8203 188.748 58.2328C188.748 59.8656 188.422 61.4391 187.769 62.8938L184.177 60.7266L179.634 57.9953C178.091 57.075 176.161 57.075 174.617 57.9953L170.075 60.7266C170.164 60.9641 170.253 61.2016 170.342 61.3797ZM176.725 103.091V98.9641C176.725 95.3125 179.694 92.3734 183.316 92.3734C186.937 92.3734 189.906 95.3422 189.906 98.9641V103.091C189.906 106.742 186.937 109.681 183.316 109.681C179.694 109.681 176.725 106.713 176.725 103.091ZM181.891 129.156C181.505 129.156 181.119 129.037 180.762 128.83C179.783 128.206 179.516 126.93 180.139 125.95L199.555 95.5203C200.178 94.5406 201.455 94.2734 202.434 94.8969C203.414 95.5203 203.681 96.7969 203.058 97.7766L183.642 128.206C183.256 128.83 182.573 129.156 181.891 129.156ZM204.987 127.078C204.987 130.73 202.019 133.669 198.397 133.669C194.745 133.669 191.806 130.7 191.806 127.078V122.952C191.806 119.3 194.775 116.361 198.397 116.361C202.048 116.361 204.987 119.33 204.987 122.952V127.078Z" fill="#3B4652"/>
</svg>
