<svg width="306" height="272" viewBox="0 0 306 272" fill="none" xmlns="http://www.w3.org/2000/svg">
<rect x="18.5" y="2.5" width="285" height="253" rx="17.5" fill="#9D9D9D" stroke="black" stroke-width="5"/>
<rect x="2.5" y="16.5" width="285" height="253" rx="17.5" fill="white" stroke="black" stroke-width="5"/>
<path d="M179.009 78.6578C171.498 77.9453 164.566 79.2961 159.564 82.0273C161.924 85.0406 163.438 89.7609 163.438 95.075C163.438 99.4094 162.429 103.343 160.781 106.282C164.982 108.791 170.355 110.557 176.308 111.121C190.662 112.487 202.908 106.312 203.65 97.3461C204.392 88.3805 193.363 80.0234 179.009 78.6578Z" fill="#FFB89A"/>
<path d="M73.9751 103.328L74.1235 107.93C74.4501 117.979 78.0126 127.761 84.4548 136.192C90.6298 144.282 99.2392 150.917 109.377 155.385C111.634 156.38 114.261 155.355 115.241 153.099C116.235 150.843 115.211 148.216 112.955 147.236C104.197 143.377 96.7899 137.691 91.5204 130.789C87.2157 125.148 84.4696 118.81 83.4454 112.234H196.644C195.605 118.884 192.814 125.282 188.42 130.982C183.062 137.929 175.536 143.629 166.63 147.444C164.374 148.409 163.334 151.036 164.299 153.292C165.027 154.984 166.659 155.994 168.396 155.994C168.99 155.994 169.584 155.875 170.148 155.638C191.597 146.405 205.327 128.132 205.966 107.93L206.114 103.328H73.9751Z" fill="#45484C"/>
<path d="M151.86 148.765H128.258C123.033 148.765 118.744 153.04 118.744 158.28C118.744 163.52 123.019 167.795 128.258 167.795H151.86C157.085 167.795 161.375 163.52 161.375 158.28C161.375 153.04 157.085 148.765 151.86 148.765ZM151.86 158.873H128.258C127.947 158.873 127.65 158.577 127.65 158.265C127.65 157.953 127.947 157.656 128.258 157.656H151.86C152.172 157.656 152.469 157.953 152.469 158.265C152.469 158.577 152.172 158.873 151.86 158.873Z" fill="#45484C"/>
<path d="M137.937 85.4414C136.512 83.4375 133.721 82.9773 131.717 84.4172C129.713 85.8422 129.253 88.6328 130.693 90.6367C132.296 92.8781 133.157 95.5351 133.157 98.3109C133.157 100.775 135.146 102.764 137.61 102.764C140.074 102.764 142.063 100.775 142.063 98.3109C142.063 93.65 140.638 89.1969 137.937 85.4414ZM128.184 77.7672C125.557 76.7133 122.796 76.1789 119.946 76.1789C107.744 76.1789 97.8289 86.0945 97.8289 98.2961C97.8289 100.76 99.8179 102.749 102.282 102.749C104.746 102.749 106.735 100.76 106.735 98.2961C106.735 91.0078 112.658 85.0851 119.946 85.0851C121.653 85.0851 123.301 85.3969 124.859 86.0351C127.145 86.9555 129.728 85.8422 130.648 83.5562C131.569 81.2703 130.47 78.6726 128.184 77.7672Z" fill="#33CC99"/>
<path d="M145.552 70.7758C138.619 64.007 129.565 60.2664 120.05 60.2664C110.535 60.2664 101.48 63.9922 94.5484 70.7758C87.7054 77.4703 83.564 86.5101 82.8812 96.218C82.7031 98.6672 84.5586 100.805 87.0078 100.968C89.457 101.131 91.5945 99.2906 91.7578 96.8414C92.2773 89.3008 95.4836 82.3094 100.768 77.1437C106.023 72.0078 112.866 69.1726 120.05 69.1726C127.219 69.1726 134.077 72.0078 139.332 77.1437C144.616 82.3094 147.808 89.3008 148.342 96.8414C148.505 99.1867 150.465 100.983 152.78 100.983C152.884 100.983 152.988 100.983 153.092 100.968C155.541 100.79 157.397 98.6672 157.219 96.218C156.536 86.5101 152.394 77.4703 145.552 70.7758ZM196.866 87.282C195.159 84.4023 192.755 81.8492 189.727 79.682L197.727 71.0281C199.39 69.2172 199.286 66.3969 197.475 64.7344C195.664 63.0719 192.844 63.1758 191.181 64.9867L181.533 75.4367C180.791 75.1695 180.034 74.9172 179.262 74.6945L191.493 51.0633C192.621 48.8812 191.775 46.1945 189.578 45.0664C187.396 43.9383 184.709 44.7844 183.581 46.9812L170.044 73.1508C169.227 73.1062 168.396 73.0766 167.565 73.0766C164.314 73.0766 161.108 73.4328 158.02 74.1453C155.63 74.6945 154.131 77.0844 154.68 79.4891C155.23 81.8789 157.619 83.3781 160.024 82.8289C162.444 82.2648 164.982 81.9828 167.55 81.9828C174.022 81.9828 180.048 83.7344 184.516 86.9258C188.539 89.7906 190.751 93.457 190.751 97.2422C190.751 99.7062 192.74 101.695 195.204 101.695C197.668 101.695 199.657 99.7062 199.657 97.2422C199.657 93.7539 198.722 90.3992 196.866 87.282Z" fill="#45484C"/>
<path d="M73.5284 233V203.909H85.0057C87.2121 203.909 89.0919 204.33 90.6449 205.173C92.1979 206.007 93.3816 207.167 94.196 208.653C95.0199 210.131 95.4318 211.835 95.4318 213.767C95.4318 215.699 95.0152 217.403 94.1818 218.881C93.3485 220.358 92.1411 221.509 90.5597 222.332C88.9877 223.156 87.0843 223.568 84.8494 223.568H77.5341V218.639H83.8551C85.0388 218.639 86.0142 218.436 86.7812 218.028C87.5578 217.612 88.1354 217.039 88.5142 216.31C88.9025 215.571 89.0966 214.723 89.0966 213.767C89.0966 212.801 88.9025 211.958 88.5142 211.239C88.1354 210.509 87.5578 209.946 86.7812 209.548C86.0047 209.141 85.0199 208.938 83.8267 208.938H79.679V233H73.5284ZM99.3132 233V211.182H105.18V214.989H105.407C105.805 213.634 106.472 212.612 107.41 211.92C108.347 211.22 109.427 210.869 110.648 210.869C110.951 210.869 111.278 210.888 111.629 210.926C111.979 210.964 112.287 211.016 112.552 211.082V216.452C112.268 216.366 111.875 216.291 111.373 216.224C110.871 216.158 110.412 216.125 109.995 216.125C109.105 216.125 108.309 216.319 107.609 216.707C106.917 217.086 106.368 217.616 105.961 218.298C105.563 218.98 105.364 219.766 105.364 220.656V233H99.3132ZM124.523 233.426C122.316 233.426 120.408 232.957 118.798 232.02C117.198 231.073 115.962 229.757 115.091 228.071C114.22 226.376 113.784 224.411 113.784 222.176C113.784 219.922 114.22 217.953 115.091 216.267C115.962 214.572 117.198 213.256 118.798 212.318C120.408 211.371 122.316 210.898 124.523 210.898C126.729 210.898 128.633 211.371 130.233 212.318C131.843 213.256 133.083 214.572 133.955 216.267C134.826 217.953 135.261 219.922 135.261 222.176C135.261 224.411 134.826 226.376 133.955 228.071C133.083 229.757 131.843 231.073 130.233 232.02C128.633 232.957 126.729 233.426 124.523 233.426ZM124.551 228.739C125.555 228.739 126.393 228.455 127.065 227.886C127.738 227.309 128.244 226.523 128.585 225.528C128.936 224.534 129.111 223.402 129.111 222.134C129.111 220.865 128.936 219.733 128.585 218.739C128.244 217.744 127.738 216.958 127.065 216.381C126.393 215.803 125.555 215.514 124.551 215.514C123.538 215.514 122.686 215.803 121.994 216.381C121.313 216.958 120.796 217.744 120.446 218.739C120.105 219.733 119.935 220.865 119.935 222.134C119.935 223.402 120.105 224.534 120.446 225.528C120.796 226.523 121.313 227.309 121.994 227.886C122.686 228.455 123.538 228.739 124.551 228.739ZM147.236 233.355C145.579 233.355 144.078 232.929 142.733 232.077C141.398 231.215 140.337 229.951 139.551 228.284C138.775 226.608 138.386 224.553 138.386 222.119C138.386 219.619 138.789 217.541 139.594 215.884C140.399 214.217 141.469 212.972 142.804 212.148C144.149 211.314 145.621 210.898 147.222 210.898C148.443 210.898 149.461 211.106 150.276 211.523C151.099 211.93 151.762 212.441 152.264 213.057C152.776 213.663 153.164 214.259 153.429 214.847H153.614V203.909H159.651V233H153.685V229.506H153.429C153.145 230.112 152.742 230.713 152.222 231.31C151.71 231.897 151.043 232.384 150.219 232.773C149.404 233.161 148.41 233.355 147.236 233.355ZM149.153 228.54C150.129 228.54 150.953 228.275 151.625 227.744C152.307 227.205 152.828 226.452 153.188 225.486C153.557 224.52 153.741 223.388 153.741 222.091C153.741 220.794 153.562 219.667 153.202 218.71C152.842 217.754 152.321 217.015 151.639 216.494C150.957 215.973 150.129 215.713 149.153 215.713C148.159 215.713 147.321 215.983 146.639 216.523C145.957 217.062 145.441 217.811 145.091 218.767C144.741 219.723 144.565 220.831 144.565 222.091C144.565 223.36 144.741 224.482 145.091 225.457C145.451 226.423 145.967 227.181 146.639 227.73C147.321 228.27 148.159 228.54 149.153 228.54ZM178.617 223.71V211.182H184.668V233H178.859V229.037H178.631C178.139 230.315 177.32 231.343 176.174 232.119C175.038 232.896 173.65 233.284 172.012 233.284C170.554 233.284 169.271 232.953 168.163 232.29C167.055 231.627 166.188 230.685 165.563 229.463C164.948 228.241 164.635 226.778 164.626 225.074V211.182H170.677V223.994C170.686 225.282 171.032 226.3 171.714 227.048C172.396 227.796 173.309 228.17 174.455 228.17C175.184 228.17 175.866 228.005 176.501 227.673C177.135 227.332 177.647 226.83 178.035 226.168C178.433 225.505 178.627 224.686 178.617 223.71ZM194.991 226.722L195.006 219.463H195.886L202.875 211.182H209.821L200.432 222.148H198.997L194.991 226.722ZM189.509 233V203.909H195.56V233H189.509ZM203.145 233L196.724 223.497L200.759 219.222L210.233 233H203.145Z" fill="black"/>
</svg>
